<svg xmlns="http://www.w3.org/2000/svg" viewBox="0 0 96 96" role="img" aria-labelledby="title">
  <title id="title">Pool-Area Person Count</title>
  <circle cx="76" cy="20" r="8" fill="#006FFF" opacity=".12"/>
  <path d="M20 77h56" fill="none" stroke="#01183E" stroke-width="2" stroke-linecap="round" opacity=".18"/>
  <g transform="translate(12 12) scale(3)" fill="none" stroke="#0559D5" stroke-width="1.65" stroke-linecap="round" stroke-linejoin="round">
    <path d="M3 8c2.5 0 2.5 2 5 2s2.5-2 5-2 2.5 2 5 2 2.5-2 3-2"/><path d="M3 13c2.5 0 2.5 2 5 2s2.5-2 5-2 2.5 2 5 2 2.5-2 3-2"/><path d="M3 18c2.5 0 2.5 2 5 2s2.5-2 5-2 2.5 2 5 2 2.5-2 3-2"/>
  </g>
</svg>
